<svg width="50" height="50" viewBox="0 0 90 78" fill="none" xmlns="http://www.w3.org/2000/svg">
<path d="M89.142 37.6491C88.3124 36.2335 86.9351 35.2431 85.3512 34.923L83.5572 34.5564L82.1531 34.2694L81.3107 34.11L79.9067 33.8231L78.9863 33.6318C77.7809 33.3185 76.6434 32.7778 75.6323 32.0376L70.9522 28.8492C69.2013 27.6417 67.1366 26.9977 65.0242 27H56.6313C53.8296 27.0067 51.146 28.1542 49.1745 30.1884C47.9168 31.4761 46.3165 32.3575 44.5724 32.7231L43.574 32.9463C42.0966 33.271 41.0313 34.5907 41 36.1346V43.0374C41.0026 43.8424 41.4578 44.5743 42.17 44.9185L44.9468 46.1779C45.3042 47.868 46.5266 49.2294 48.1437 49.7384C49.7608 50.2473 51.5209 49.8247 52.7469 48.6329C53.3058 48.0608 53.7137 47.3533 53.9325 46.5764H77.1455C77.3643 47.3533 77.7722 48.0608 78.3311 48.6329C80.1509 50.4557 83.0634 50.4557 84.8832 48.6329C85.4403 48.0621 85.8434 47.3536 86.0532 46.5764H87.4104C88.837 46.5677 89.9915 45.388 90 43.9301V40.2316C89.9953 39.4312 89.774 38.6477 89.3604 37.9679L89.142 37.6491ZM81.7 48.7C79.767 48.7 78.2 47.133 78.2 45.2C78.2 43.267 79.767 41.7 81.7 41.7C83.633 41.7 85.2 43.267 85.2 45.2C85.2 47.133 83.633 48.7 81.7 48.7ZM49.5 48.7C47.567 48.7 46 47.133 46 45.2C46 43.267 47.567 41.7 49.5 41.7C51.433 41.7 53 43.267 53 45.2C53 47.133 51.433 48.7 49.5 48.7ZM88.5648 43.9301C88.5648 44.5992 88.034 45.1417 87.3792 45.1417H86.2248C86.2099 44.1108 85.8523 43.1157 85.2108 42.32L85.086 42.1765L84.9456 42.033C84.3441 41.3839 83.5767 40.92 82.7303 40.6939C82.3615 40.6104 81.9849 40.5677 81.6071 40.5664C81.2985 40.5606 80.99 40.5873 80.6867 40.6461C79.7954 40.8333 78.9768 41.2821 78.3311 41.9374L78.1907 42.0809L78.0659 42.2403C77.4273 43.0389 77.0652 44.031 77.0363 45.0619H54.1665C54.1031 44.0492 53.7261 43.0834 53.0901 42.304C53.0574 42.2442 53.0152 42.1904 52.9653 42.1446L52.8093 41.9693C52.5884 41.7457 52.3482 41.543 52.0917 41.3635C51.3295 40.8604 50.4406 40.5945 49.5333 40.5983C48.3131 40.6035 47.1432 41.0954 46.2728 41.9693L46.1168 42.1446L46.0232 42.2562L45.9296 42.3837L45.68 42.7663C45.6379 42.8265 45.6014 42.8906 45.5708 42.9576C45.3262 43.4306 45.1627 43.9428 45.0872 44.4721L42.9032 43.4837C42.6768 43.3783 42.5307 43.1482 42.5288 42.8939V36.1187C42.5297 35.2314 43.1323 34.4633 43.9796 34.2694L44.9936 34.0622C46.9973 33.638 48.8357 32.6239 50.2821 31.1449C51.9702 29.414 54.2557 28.4294 56.6469 28.4028H65.1022C66.9354 28.3976 68.7283 28.9528 70.2502 29.9971L74.9303 33.1854C76.096 34.039 77.4084 34.6609 78.7991 35.0187L85.164 36.31C86.3571 36.5525 87.3942 37.2996 88.0188 38.3664L88.2528 38.7331C88.5065 39.1843 88.641 39.6953 88.6428 40.2157L88.5648 43.9301Z" fill="#151A44" stroke="#151A44"/>
<path d="M75.7031 52.9109C74.543 52.9109 65.5199 55.1886 48.6338 59.744C48.384 58.9266 47.9408 58.1814 47.3418 57.5713L38.6281 48.9118C37.5582 47.843 36.1072 47.2427 34.5943 47.2429H17.2615C16.9074 44.2887 14.4243 42.0497 11.4471 42H6.95632C3.69477 42.0083 1.04315 44.6298 0.999585 47.8884V59.8857C0.999585 60.1975 1.12512 60.4962 1.34721 60.7152C1.5693 60.9342 1.86995 61.055 2.18192 61.0508C2.82849 61.0509 3.35508 60.5317 3.3637 59.8857V47.8884C3.3637 45.9059 4.97217 44.2987 6.95632 44.2987H11.4471C13.184 44.2996 14.6739 45.5368 14.9924 47.2429C15.087 47.7152 14.9924 46.2982 14.9924 68.8129C14.9838 70.7918 13.3804 72.394 11.3998 72.4026H6.95632C5.99525 72.4027 5.07422 72.018 4.39909 71.3346C3.72397 70.6511 3.35105 69.7258 3.3637 68.7656V59.2245C3.3637 58.5723 2.8346 58.0436 2.18192 58.0436C1.52924 58.0436 0.999585 58.5723 0.999585 59.2245V68.7656C0.991757 70.3509 1.61508 71.8744 2.73254 72.9999C3.84999 74.1253 5.36972 74.7601 6.95632 74.7643H11.4471C13.0337 74.7601 14.5534 74.1253 15.6709 72.9999C16.7883 71.8744 17.4117 70.3509 17.4033 68.7656V66.7188C26.0854 68.2933 24.2261 67.6793 37.1627 74.0085C39.2741 75.0319 41.3068 77 45.5927 77C47.8871 76.9845 50.1291 76.3125 52.0531 75.0634L74.4912 63.6959C75.0662 63.4014 75.2978 62.7001 75.0112 62.1215C74.8699 61.8451 74.6241 61.6365 74.3283 61.542C74.0325 61.4474 73.7112 61.4746 73.4355 61.6176L50.8398 73.1111C49.2754 74.1221 47.4557 74.6681 45.5927 74.6856C42.0159 74.6856 40.4559 73.1111 38.2026 71.946C25.0455 65.5065 26.9048 66.0261 17.4033 64.3729V49.6046H34.6415C35.5285 49.6003 36.38 49.952 37.0051 50.5807L45.6715 59.2245C46.4525 59.9724 46.7031 61.1181 46.3055 62.1234C45.9079 63.1287 44.9412 63.7937 43.8594 63.8061C43.1541 63.8054 42.4785 63.5218 41.9844 63.0189L34.1846 55.1466C33.89 54.8307 33.4463 54.7007 33.0276 54.8075C32.6088 54.9144 32.2819 55.2411 32.175 55.6595C32.068 56.0778 32.1982 56.5212 32.5143 56.8156L40.3929 64.6091C41.6898 65.9125 43.6002 66.3954 45.3614 65.8648C47.1225 65.3343 48.4475 63.8767 48.8072 62.0742C77.9578 54.7373 76.3506 55.1152 76.65 55.1152C77.7027 55.125 78.6145 55.8476 78.8637 56.8696C79.1129 57.8917 78.6359 58.9523 77.7057 59.4449C77.1308 59.7395 76.8992 60.4407 77.1857 61.0193C77.4863 61.587 78.1818 61.8163 78.7614 61.5389C80.6198 60.3889 81.4466 58.1157 80.761 56.0418C80.0754 53.9679 78.0089 52.7286 75.8306 52.9109C76.9057 52.9109 76.8632 52.9109 75.7031 52.9109Z" fill="#151A44" stroke="#151A44" stroke-width="0.5"/>
<path d="M79.6867 59.6655C78.5811 59.2893 78.6018 58.9761 78.0079 59.2724L67.0748 64.8606C67.6006 65.4151 68.0498 66.1242 68.4134 66.7726L78.6372 61.6143C79.2073 61.3465 80.7923 60.0417 79.6867 59.6655Z" fill="#151A44" stroke="#151A44" stroke-width="0.5"/>
<path d="M60.1628 30.3256C67.9847 30.3256 74.3256 23.9847 74.3256 16.1628C74.3256 8.3409 67.9847 2 60.1628 2C52.3409 2 46 8.3409 46 16.1628C46 23.9847 52.3409 30.3256 60.1628 30.3256Z" fill="#FAAE1A" stroke="#151A44" stroke-width="2.7"/>
<mask id="mask0_7_67" style="mask-type:luminance" maskUnits="userSpaceOnUse" x="46" y="2" width="29" height="29">
<path d="M60.1628 30.3256C67.9847 30.3256 74.3256 23.9847 74.3256 16.1628C74.3256 8.3409 67.9847 2 60.1628 2C52.3409 2 46 8.3409 46 16.1628C46 23.9847 52.3409 30.3256 60.1628 30.3256Z" fill="white"/>
</mask>
<g mask="url(#mask0_7_67)">
<path d="M74.3256 2H46V30.3256H74.3256V2Z" fill="#F05947"/>
<path fill-rule="evenodd" clip-rule="evenodd" d="M46 2H74.3256V30.3256H46V2Z" fill="#FF4B4A"/>
</g>
<mask id="mask1_7_67" style="mask-type:luminance" maskUnits="userSpaceOnUse" x="46" y="2" width="29" height="29">
<path d="M60.1628 30.3256C67.9847 30.3256 74.3256 23.9847 74.3256 16.1628C74.3256 8.3409 67.9847 2 60.1628 2C52.3409 2 46 8.3409 46 16.1628C46 23.9847 52.3409 30.3256 60.1628 30.3256Z" fill="white"/>
</mask>
<g mask="url(#mask1_7_67)">
<path d="M58.2956 13.1386H64.2293C64.7769 13.1386 65.2209 12.6849 65.2209 12.1252C65.2209 11.5655 64.7769 11.1118 64.2293 11.1118H61.2703V8.07155C61.2703 7.51186 60.8264 7.05814 60.2787 7.05814C59.7311 7.05814 59.2872 7.51186 59.2872 8.07155V11.1118H58.2956C57.184 11.029 56.1205 11.5881 55.54 12.5605C54.9595 13.5328 54.9595 14.7552 55.54 15.7275C56.1205 16.6999 57.184 17.259 58.2956 17.1762H62.2462C62.7938 17.1762 63.2377 17.6299 63.2377 18.1896C63.2377 18.7493 62.7938 19.203 62.2462 19.203H56.3124C55.9313 19.1537 55.5565 19.3338 55.3506 19.6653C55.1447 19.9968 55.1447 20.42 55.3506 20.7515C55.5565 21.083 55.9313 21.2632 56.3124 21.2138H59.2872V24.254C59.2872 24.8137 59.7311 25.2674 60.2787 25.2674C60.8264 25.2674 61.2703 24.8137 61.2703 24.254V21.2138H62.2619C63.8168 21.098 65.0204 19.7749 65.0204 18.1816C65.0204 16.5882 63.8168 15.2652 62.2619 15.1494H58.2956C57.9144 15.1987 57.5397 15.0186 57.3338 14.6871C57.1279 14.3556 57.1279 13.9324 57.3338 13.6009C57.5397 13.2694 57.9144 13.0893 58.2956 13.1386Z" fill="white"/>
</g>
<mask id="mask2_7_67" style="mask-type:luminance" maskUnits="userSpaceOnUse" x="46" y="2" width="29" height="29">
<path d="M60.1628 30.3256C67.9847 30.3256 74.3256 23.9847 74.3256 16.1628C74.3256 8.3409 67.9847 2 60.1628 2C52.3409 2 46 8.3409 46 16.1628C46 23.9847 52.3409 30.3256 60.1628 30.3256Z" fill="white"/>
</mask>
<g mask="url(#mask2_7_67)">
<path d="M60.1628 30.3256C67.9847 30.3256 74.3256 23.9847 74.3256 16.1628C74.3256 8.3409 67.9847 2 60.1628 2C52.3409 2 46 8.3409 46 16.1628C46 23.9847 52.3409 30.3256 60.1628 30.3256Z" stroke="#151A44" stroke-width="2.7"/>
</g>
</svg>
